<mxfile host="Electron" modified="2023-04-19T20:34:20.623Z" agent="Mozilla/5.0 (Macintosh; Intel Mac OS X 10_15_7) AppleWebKit/537.36 (KHTML, like Gecko) draw.io/21.1.2 Chrome/106.0.5249.199 Electron/21.4.3 Safari/537.36" etag="RZ0HGFeBSEMoT9iEANvt" version="21.1.2" type="device">
  <diagram name="Page-1" id="57gWolXwOuoM-JA8aoAo">
    <mxGraphModel dx="2685" dy="798" grid="1" gridSize="10" guides="1" tooltips="1" connect="1" arrows="1" fold="1" page="1" pageScale="1" pageWidth="1100" pageHeight="850" math="0" shadow="0">
      <root>
        <mxCell id="0" />
        <mxCell id="1" parent="0" />
        <mxCell id="33YIE1QMlLKucIsV87hc-16" style="edgeStyle=orthogonalEdgeStyle;rounded=0;orthogonalLoop=1;jettySize=auto;html=1;exitX=1;exitY=0.5;exitDx=0;exitDy=0;entryX=0;entryY=0.5;entryDx=0;entryDy=0;" parent="1" source="33YIE1QMlLKucIsV87hc-3" target="33YIE1QMlLKucIsV87hc-14" edge="1">
          <mxGeometry relative="1" as="geometry" />
        </mxCell>
        <mxCell id="33YIE1QMlLKucIsV87hc-3" value="Hub publishes to&lt;br&gt;~/all/status" style="rounded=1;whiteSpace=wrap;html=1;fillColor=#a20025;strokeColor=#6F0000;fontColor=#ffffff;" parent="1" vertex="1">
          <mxGeometry x="490" y="50" width="120" height="60" as="geometry" />
        </mxCell>
        <mxCell id="33YIE1QMlLKucIsV87hc-54" style="edgeStyle=orthogonalEdgeStyle;rounded=0;orthogonalLoop=1;jettySize=auto;html=1;exitX=1;exitY=0.5;exitDx=0;exitDy=0;entryX=0;entryY=0.5;entryDx=0;entryDy=0;" parent="1" source="33YIE1QMlLKucIsV87hc-12" edge="1">
          <mxGeometry relative="1" as="geometry">
            <mxPoint x="340" y="530" as="targetPoint" />
          </mxGeometry>
        </mxCell>
        <mxCell id="33YIE1QMlLKucIsV87hc-12" value="Hub gets request&lt;br&gt;for curtain" style="rhombus;whiteSpace=wrap;html=1;fillColor=#a20025;strokeColor=#6F0000;fontColor=#ffffff;" parent="1" vertex="1">
          <mxGeometry x="180" y="500" width="120" height="60" as="geometry" />
        </mxCell>
        <mxCell id="33YIE1QMlLKucIsV87hc-69" style="edgeStyle=orthogonalEdgeStyle;rounded=0;orthogonalLoop=1;jettySize=auto;html=1;exitX=1;exitY=0.5;exitDx=0;exitDy=0;entryX=0;entryY=0.5;entryDx=0;entryDy=0;" parent="1" source="33YIE1QMlLKucIsV87hc-13" target="33YIE1QMlLKucIsV87hc-68" edge="1">
          <mxGeometry relative="1" as="geometry" />
        </mxCell>
        <mxCell id="33YIE1QMlLKucIsV87hc-13" value="Hub is &lt;br&gt;powered on" style="rhombus;whiteSpace=wrap;html=1;fillColor=#a20025;strokeColor=#6F0000;fontColor=#ffffff;" parent="1" vertex="1">
          <mxGeometry x="10" y="50" width="120" height="60" as="geometry" />
        </mxCell>
        <mxCell id="33YIE1QMlLKucIsV87hc-103" style="edgeStyle=orthogonalEdgeStyle;rounded=0;orthogonalLoop=1;jettySize=auto;html=1;exitX=1;exitY=0.5;exitDx=0;exitDy=0;entryX=0;entryY=0.5;entryDx=0;entryDy=0;" parent="1" source="33YIE1QMlLKucIsV87hc-14" target="33YIE1QMlLKucIsV87hc-99" edge="1">
          <mxGeometry relative="1" as="geometry" />
        </mxCell>
        <mxCell id="33YIE1QMlLKucIsV87hc-14" value="Curtain is&lt;br&gt;powered on" style="rhombus;whiteSpace=wrap;html=1;fillColor=#1ba1e2;strokeColor=#006EAF;fontColor=#ffffff;" parent="1" vertex="1">
          <mxGeometry x="650" y="50" width="120" height="60" as="geometry" />
        </mxCell>
        <mxCell id="33YIE1QMlLKucIsV87hc-21" value="Hub publishes to ~/-/-/&amp;lt;id&amp;gt;/move&lt;br&gt;or ~/-/&amp;lt;Room.id&amp;gt;/move,&lt;br&gt;~/&amp;lt;Home.id&amp;gt;/move" style="rounded=1;whiteSpace=wrap;html=1;fillColor=#a20025;strokeColor=#6F0000;fontColor=#ffffff;" parent="1" vertex="1">
          <mxGeometry x="340" y="500" width="120" height="60" as="geometry" />
        </mxCell>
        <mxCell id="33YIE1QMlLKucIsV87hc-113" style="edgeStyle=orthogonalEdgeStyle;rounded=0;orthogonalLoop=1;jettySize=auto;html=1;exitX=0.5;exitY=1;exitDx=0;exitDy=0;entryX=0.5;entryY=0;entryDx=0;entryDy=0;dashed=1;" parent="1" source="33YIE1QMlLKucIsV87hc-23" target="33YIE1QMlLKucIsV87hc-111" edge="1">
          <mxGeometry relative="1" as="geometry" />
        </mxCell>
        <mxCell id="33YIE1QMlLKucIsV87hc-116" style="edgeStyle=orthogonalEdgeStyle;rounded=0;orthogonalLoop=1;jettySize=auto;html=1;exitX=1;exitY=0.5;exitDx=0;exitDy=0;entryX=0;entryY=0.5;entryDx=0;entryDy=0;dashed=1;" parent="1" source="33YIE1QMlLKucIsV87hc-23" target="33YIE1QMlLKucIsV87hc-47" edge="1">
          <mxGeometry relative="1" as="geometry" />
        </mxCell>
        <mxCell id="33YIE1QMlLKucIsV87hc-23" value="Curtain receives published message" style="rounded=1;whiteSpace=wrap;html=1;fillColor=#1ba1e2;strokeColor=#006EAF;fontColor=#ffffff;" parent="1" vertex="1">
          <mxGeometry x="500" y="500" width="120" height="60" as="geometry" />
        </mxCell>
        <mxCell id="33YIE1QMlLKucIsV87hc-53" style="edgeStyle=orthogonalEdgeStyle;rounded=0;orthogonalLoop=1;jettySize=auto;html=1;exitX=1;exitY=0.5;exitDx=0;exitDy=0;entryX=0.5;entryY=0;entryDx=0;entryDy=0;" parent="1" source="33YIE1QMlLKucIsV87hc-77" target="pYTJIBWrfK2sdvSUUm1U-1" edge="1">
          <mxGeometry relative="1" as="geometry">
            <mxPoint x="1180" y="310" as="sourcePoint" />
            <Array as="points">
              <mxPoint x="1270" y="160" />
              <mxPoint x="1270" y="230" />
              <mxPoint x="230" y="230" />
            </Array>
            <mxPoint x="230" y="240" as="targetPoint" />
          </mxGeometry>
        </mxCell>
        <mxCell id="33YIE1QMlLKucIsV87hc-57" style="edgeStyle=orthogonalEdgeStyle;rounded=0;orthogonalLoop=1;jettySize=auto;html=1;exitX=1;exitY=0.5;exitDx=0;exitDy=0;entryX=0;entryY=0.5;entryDx=0;entryDy=0;" parent="1" target="33YIE1QMlLKucIsV87hc-23" edge="1">
          <mxGeometry relative="1" as="geometry">
            <mxPoint x="460" y="530" as="sourcePoint" />
          </mxGeometry>
        </mxCell>
        <mxCell id="33YIE1QMlLKucIsV87hc-59" style="edgeStyle=orthogonalEdgeStyle;rounded=0;orthogonalLoop=1;jettySize=auto;html=1;exitX=1;exitY=0.5;exitDx=0;exitDy=0;entryX=0;entryY=0.5;entryDx=0;entryDy=0;" parent="1" source="33YIE1QMlLKucIsV87hc-47" target="33YIE1QMlLKucIsV87hc-48" edge="1">
          <mxGeometry relative="1" as="geometry" />
        </mxCell>
        <mxCell id="33YIE1QMlLKucIsV87hc-47" value="Curtain publishes to&lt;br&gt;curtains/&amp;lt;name&amp;gt;/status" style="rounded=1;whiteSpace=wrap;html=1;fillColor=#1ba1e2;strokeColor=#006EAF;fontColor=#ffffff;" parent="1" vertex="1">
          <mxGeometry x="660" y="500" width="120" height="60" as="geometry" />
        </mxCell>
        <mxCell id="33YIE1QMlLKucIsV87hc-61" style="edgeStyle=orthogonalEdgeStyle;rounded=0;orthogonalLoop=1;jettySize=auto;html=1;exitX=0.5;exitY=1;exitDx=0;exitDy=0;" parent="1" source="33YIE1QMlLKucIsV87hc-48" target="33YIE1QMlLKucIsV87hc-60" edge="1">
          <mxGeometry relative="1" as="geometry" />
        </mxCell>
        <mxCell id="33YIE1QMlLKucIsV87hc-48" value="&amp;nbsp;Hub receives status on ~/hub/update" style="rounded=1;whiteSpace=wrap;html=1;fillColor=#a20025;strokeColor=#6F0000;fontColor=#ffffff;" parent="1" vertex="1">
          <mxGeometry x="820" y="500" width="120" height="60" as="geometry" />
        </mxCell>
        <mxCell id="33YIE1QMlLKucIsV87hc-62" style="edgeStyle=orthogonalEdgeStyle;rounded=0;orthogonalLoop=1;jettySize=auto;html=1;exitX=0;exitY=0.5;exitDx=0;exitDy=0;entryX=0.5;entryY=1;entryDx=0;entryDy=0;" parent="1" source="33YIE1QMlLKucIsV87hc-60" target="33YIE1QMlLKucIsV87hc-12" edge="1">
          <mxGeometry relative="1" as="geometry" />
        </mxCell>
        <mxCell id="33YIE1QMlLKucIsV87hc-60" value="Hub updates curtain&#39;s status for Curtain instance" style="rounded=1;whiteSpace=wrap;html=1;fillColor=#a20025;strokeColor=#6F0000;fontColor=#ffffff;" parent="1" vertex="1">
          <mxGeometry x="820" y="660" width="120" height="60" as="geometry" />
        </mxCell>
        <mxCell id="33YIE1QMlLKucIsV87hc-71" style="edgeStyle=orthogonalEdgeStyle;rounded=0;orthogonalLoop=1;jettySize=auto;html=1;exitX=1;exitY=0.5;exitDx=0;exitDy=0;entryX=0;entryY=0.5;entryDx=0;entryDy=0;" parent="1" source="33YIE1QMlLKucIsV87hc-66" target="33YIE1QMlLKucIsV87hc-3" edge="1">
          <mxGeometry relative="1" as="geometry" />
        </mxCell>
        <mxCell id="33YIE1QMlLKucIsV87hc-66" value="Hub subscribes to ~/hub/update" style="rounded=1;whiteSpace=wrap;html=1;fillColor=#a20025;strokeColor=#6F0000;fontColor=#ffffff;" parent="1" vertex="1">
          <mxGeometry x="330" y="50" width="120" height="60" as="geometry" />
        </mxCell>
        <mxCell id="33YIE1QMlLKucIsV87hc-70" style="edgeStyle=orthogonalEdgeStyle;rounded=0;orthogonalLoop=1;jettySize=auto;html=1;exitX=1;exitY=0.5;exitDx=0;exitDy=0;" parent="1" source="33YIE1QMlLKucIsV87hc-68" target="33YIE1QMlLKucIsV87hc-66" edge="1">
          <mxGeometry relative="1" as="geometry" />
        </mxCell>
        <mxCell id="33YIE1QMlLKucIsV87hc-68" value="Hub creates instance for each curtain in DB" style="rounded=1;whiteSpace=wrap;html=1;fillColor=#a20025;strokeColor=#6F0000;fontColor=#ffffff;" parent="1" vertex="1">
          <mxGeometry x="170" y="50" width="120" height="60" as="geometry" />
        </mxCell>
        <mxCell id="33YIE1QMlLKucIsV87hc-105" style="edgeStyle=orthogonalEdgeStyle;rounded=0;orthogonalLoop=1;jettySize=auto;html=1;exitX=1;exitY=0.5;exitDx=0;exitDy=0;entryX=0;entryY=0.5;entryDx=0;entryDy=0;" parent="1" source="33YIE1QMlLKucIsV87hc-72" target="33YIE1QMlLKucIsV87hc-73" edge="1">
          <mxGeometry relative="1" as="geometry" />
        </mxCell>
        <mxCell id="33YIE1QMlLKucIsV87hc-72" value="Curtain subscribes to&lt;br&gt;~/all/status" style="rounded=1;whiteSpace=wrap;html=1;fillColor=#1ba1e2;strokeColor=#006EAF;fontColor=#ffffff;" parent="1" vertex="1">
          <mxGeometry x="970" y="50" width="120" height="60" as="geometry" />
        </mxCell>
        <mxCell id="33YIE1QMlLKucIsV87hc-110" style="edgeStyle=orthogonalEdgeStyle;rounded=0;orthogonalLoop=1;jettySize=auto;html=1;exitX=1;exitY=0.5;exitDx=0;exitDy=0;entryX=0.5;entryY=0;entryDx=0;entryDy=0;" parent="1" source="33YIE1QMlLKucIsV87hc-73" target="pYTJIBWrfK2sdvSUUm1U-1" edge="1">
          <mxGeometry relative="1" as="geometry">
            <Array as="points">
              <mxPoint x="1270" y="80" />
              <mxPoint x="1270" y="230" />
              <mxPoint x="230" y="230" />
            </Array>
            <mxPoint x="230" y="240" as="targetPoint" />
          </mxGeometry>
        </mxCell>
        <mxCell id="33YIE1QMlLKucIsV87hc-117" style="edgeStyle=orthogonalEdgeStyle;rounded=0;orthogonalLoop=1;jettySize=auto;html=1;exitX=0.5;exitY=0;exitDx=0;exitDy=0;entryX=0.5;entryY=0;entryDx=0;entryDy=0;dashed=1;endArrow=diamond;endFill=1;" parent="1" source="33YIE1QMlLKucIsV87hc-73" target="33YIE1QMlLKucIsV87hc-66" edge="1">
          <mxGeometry relative="1" as="geometry" />
        </mxCell>
        <mxCell id="33YIE1QMlLKucIsV87hc-120" style="rounded=0;orthogonalLoop=1;jettySize=auto;html=1;entryX=1;entryY=0;entryDx=0;entryDy=0;dashed=1;endArrow=diamond;endFill=1;" parent="1" target="33YIE1QMlLKucIsV87hc-83" edge="1">
          <mxGeometry relative="1" as="geometry">
            <mxPoint x="1130" y="110" as="sourcePoint" />
          </mxGeometry>
        </mxCell>
        <mxCell id="33YIE1QMlLKucIsV87hc-73" value="Curtain publishes to ~/hub/update" style="rounded=1;whiteSpace=wrap;html=1;fillColor=#1ba1e2;strokeColor=#006EAF;fontColor=#ffffff;" parent="1" vertex="1">
          <mxGeometry x="1130" y="50" width="120" height="60" as="geometry" />
        </mxCell>
        <mxCell id="33YIE1QMlLKucIsV87hc-118" style="edgeStyle=orthogonalEdgeStyle;rounded=0;orthogonalLoop=1;jettySize=auto;html=1;exitX=0.5;exitY=1;exitDx=0;exitDy=0;entryX=0.5;entryY=1;entryDx=0;entryDy=0;dashed=1;endArrow=diamond;endFill=1;" parent="1" source="33YIE1QMlLKucIsV87hc-77" target="33YIE1QMlLKucIsV87hc-87" edge="1">
          <mxGeometry relative="1" as="geometry" />
        </mxCell>
        <mxCell id="33YIE1QMlLKucIsV87hc-119" style="rounded=0;orthogonalLoop=1;jettySize=auto;html=1;exitX=0;exitY=0;exitDx=0;exitDy=0;entryX=1;entryY=1;entryDx=0;entryDy=0;dashed=1;startArrow=none;startFill=0;endArrow=diamond;endFill=1;" parent="1" source="33YIE1QMlLKucIsV87hc-77" target="33YIE1QMlLKucIsV87hc-72" edge="1">
          <mxGeometry relative="1" as="geometry" />
        </mxCell>
        <mxCell id="33YIE1QMlLKucIsV87hc-77" value="Hub publishes to&lt;br&gt;~/all/status" style="rounded=1;whiteSpace=wrap;html=1;fillColor=#a20025;strokeColor=#6F0000;fontColor=#ffffff;" parent="1" vertex="1">
          <mxGeometry x="1130" y="130" width="120" height="60" as="geometry" />
        </mxCell>
        <mxCell id="33YIE1QMlLKucIsV87hc-78" style="edgeStyle=orthogonalEdgeStyle;rounded=0;orthogonalLoop=1;jettySize=auto;html=1;exitX=1;exitY=0.5;exitDx=0;exitDy=0;entryX=0;entryY=0.5;entryDx=0;entryDy=0;" parent="1" source="33YIE1QMlLKucIsV87hc-79" target="33YIE1QMlLKucIsV87hc-85" edge="1">
          <mxGeometry relative="1" as="geometry" />
        </mxCell>
        <mxCell id="33YIE1QMlLKucIsV87hc-79" value="Hub is &lt;br&gt;powered on" style="rhombus;whiteSpace=wrap;html=1;fillColor=#a20025;strokeColor=#6F0000;fontColor=#ffffff;" parent="1" vertex="1">
          <mxGeometry x="650" y="130" width="120" height="60" as="geometry" />
        </mxCell>
        <mxCell id="33YIE1QMlLKucIsV87hc-106" style="edgeStyle=orthogonalEdgeStyle;rounded=0;orthogonalLoop=1;jettySize=auto;html=1;exitX=1;exitY=0.5;exitDx=0;exitDy=0;entryX=0;entryY=0.5;entryDx=0;entryDy=0;" parent="1" source="33YIE1QMlLKucIsV87hc-81" target="33YIE1QMlLKucIsV87hc-100" edge="1">
          <mxGeometry relative="1" as="geometry" />
        </mxCell>
        <mxCell id="33YIE1QMlLKucIsV87hc-81" value="Curtain is&lt;br&gt;powered on" style="rhombus;whiteSpace=wrap;html=1;fillColor=#1ba1e2;strokeColor=#006EAF;fontColor=#ffffff;" parent="1" vertex="1">
          <mxGeometry x="10" y="130" width="120" height="60" as="geometry" />
        </mxCell>
        <mxCell id="33YIE1QMlLKucIsV87hc-109" style="edgeStyle=orthogonalEdgeStyle;rounded=0;orthogonalLoop=1;jettySize=auto;html=1;exitX=1;exitY=0.5;exitDx=0;exitDy=0;entryX=0;entryY=0.5;entryDx=0;entryDy=0;" parent="1" source="33YIE1QMlLKucIsV87hc-83" target="33YIE1QMlLKucIsV87hc-77" edge="1">
          <mxGeometry relative="1" as="geometry" />
        </mxCell>
        <mxCell id="33YIE1QMlLKucIsV87hc-83" value="Hub subscribes to ~/hub/update" style="rounded=1;whiteSpace=wrap;html=1;fillColor=#a20025;strokeColor=#6F0000;fontColor=#ffffff;" parent="1" vertex="1">
          <mxGeometry x="970" y="130" width="120" height="60" as="geometry" />
        </mxCell>
        <mxCell id="33YIE1QMlLKucIsV87hc-84" style="edgeStyle=orthogonalEdgeStyle;rounded=0;orthogonalLoop=1;jettySize=auto;html=1;exitX=1;exitY=0.5;exitDx=0;exitDy=0;" parent="1" source="33YIE1QMlLKucIsV87hc-85" target="33YIE1QMlLKucIsV87hc-83" edge="1">
          <mxGeometry relative="1" as="geometry" />
        </mxCell>
        <mxCell id="33YIE1QMlLKucIsV87hc-85" value="Hub creates instance for each curtain in DB" style="rounded=1;whiteSpace=wrap;html=1;fillColor=#a20025;strokeColor=#6F0000;fontColor=#ffffff;" parent="1" vertex="1">
          <mxGeometry x="810" y="130" width="120" height="60" as="geometry" />
        </mxCell>
        <mxCell id="33YIE1QMlLKucIsV87hc-108" style="edgeStyle=orthogonalEdgeStyle;rounded=0;orthogonalLoop=1;jettySize=auto;html=1;exitX=1;exitY=0.5;exitDx=0;exitDy=0;entryX=0;entryY=0.5;entryDx=0;entryDy=0;" parent="1" source="33YIE1QMlLKucIsV87hc-87" target="33YIE1QMlLKucIsV87hc-88" edge="1">
          <mxGeometry relative="1" as="geometry" />
        </mxCell>
        <mxCell id="33YIE1QMlLKucIsV87hc-87" value="Curtain subscribes to&lt;br&gt;~/all/status" style="rounded=1;whiteSpace=wrap;html=1;fillColor=#1ba1e2;strokeColor=#006EAF;fontColor=#ffffff;" parent="1" vertex="1">
          <mxGeometry x="330" y="130" width="120" height="60" as="geometry" />
        </mxCell>
        <mxCell id="33YIE1QMlLKucIsV87hc-89" style="edgeStyle=orthogonalEdgeStyle;rounded=0;orthogonalLoop=1;jettySize=auto;html=1;exitX=1;exitY=0.5;exitDx=0;exitDy=0;entryX=0;entryY=0.5;entryDx=0;entryDy=0;" parent="1" source="33YIE1QMlLKucIsV87hc-88" target="33YIE1QMlLKucIsV87hc-79" edge="1">
          <mxGeometry relative="1" as="geometry" />
        </mxCell>
        <mxCell id="33YIE1QMlLKucIsV87hc-88" value="Curtain publishes to ~/hub/update" style="rounded=1;whiteSpace=wrap;html=1;fillColor=#1ba1e2;strokeColor=#006EAF;fontColor=#ffffff;" parent="1" vertex="1">
          <mxGeometry x="490" y="130" width="120" height="60" as="geometry" />
        </mxCell>
        <mxCell id="33YIE1QMlLKucIsV87hc-104" style="edgeStyle=orthogonalEdgeStyle;rounded=0;orthogonalLoop=1;jettySize=auto;html=1;exitX=1;exitY=0.5;exitDx=0;exitDy=0;entryX=0;entryY=0.5;entryDx=0;entryDy=0;" parent="1" source="33YIE1QMlLKucIsV87hc-99" target="33YIE1QMlLKucIsV87hc-72" edge="1">
          <mxGeometry relative="1" as="geometry" />
        </mxCell>
        <mxCell id="33YIE1QMlLKucIsV87hc-99" value="Curtain subscribes to&lt;br&gt;~/-/-/&amp;lt;id&amp;gt;/status&lt;br&gt;~/-/-/&amp;lt;id&amp;gt;/move" style="rounded=1;whiteSpace=wrap;html=1;fillColor=#1ba1e2;strokeColor=#006EAF;fontColor=#ffffff;" parent="1" vertex="1">
          <mxGeometry x="810" y="50" width="120" height="60" as="geometry" />
        </mxCell>
        <mxCell id="33YIE1QMlLKucIsV87hc-107" style="edgeStyle=orthogonalEdgeStyle;rounded=0;orthogonalLoop=1;jettySize=auto;html=1;exitX=1;exitY=0.5;exitDx=0;exitDy=0;entryX=0;entryY=0.5;entryDx=0;entryDy=0;" parent="1" source="33YIE1QMlLKucIsV87hc-100" target="33YIE1QMlLKucIsV87hc-87" edge="1">
          <mxGeometry relative="1" as="geometry" />
        </mxCell>
        <mxCell id="33YIE1QMlLKucIsV87hc-100" value="Curtain subscribes to&lt;br&gt;~/-/-/&amp;lt;id&amp;gt;/status&lt;br&gt;~/-/-/&amp;lt;id&amp;gt;/move" style="rounded=1;whiteSpace=wrap;html=1;fillColor=#1ba1e2;strokeColor=#006EAF;fontColor=#ffffff;" parent="1" vertex="1">
          <mxGeometry x="170" y="130" width="120" height="60" as="geometry" />
        </mxCell>
        <mxCell id="33YIE1QMlLKucIsV87hc-114" style="edgeStyle=orthogonalEdgeStyle;rounded=0;orthogonalLoop=1;jettySize=auto;html=1;exitX=1;exitY=0.5;exitDx=0;exitDy=0;entryX=0;entryY=0.5;entryDx=0;entryDy=0;" parent="1" source="33YIE1QMlLKucIsV87hc-111" target="33YIE1QMlLKucIsV87hc-112" edge="1">
          <mxGeometry relative="1" as="geometry" />
        </mxCell>
        <mxCell id="33YIE1QMlLKucIsV87hc-111" value="Curtain publishes to hub/curtains/acknowledge" style="rounded=1;whiteSpace=wrap;html=1;fillColor=#1ba1e2;strokeColor=#006EAF;fontColor=#ffffff;" parent="1" vertex="1">
          <mxGeometry x="500" y="600" width="120" height="60" as="geometry" />
        </mxCell>
        <mxCell id="33YIE1QMlLKucIsV87hc-115" style="edgeStyle=orthogonalEdgeStyle;rounded=0;orthogonalLoop=1;jettySize=auto;html=1;exitX=0.5;exitY=0;exitDx=0;exitDy=0;entryX=0.5;entryY=1;entryDx=0;entryDy=0;" parent="1" source="33YIE1QMlLKucIsV87hc-112" target="33YIE1QMlLKucIsV87hc-47" edge="1">
          <mxGeometry relative="1" as="geometry" />
        </mxCell>
        <mxCell id="33YIE1QMlLKucIsV87hc-112" value="Curtain does action" style="rounded=1;whiteSpace=wrap;html=1;fillColor=#1ba1e2;strokeColor=#006EAF;fontColor=#ffffff;" parent="1" vertex="1">
          <mxGeometry x="660" y="600" width="120" height="60" as="geometry" />
        </mxCell>
        <mxCell id="pYTJIBWrfK2sdvSUUm1U-3" style="edgeStyle=orthogonalEdgeStyle;rounded=0;orthogonalLoop=1;jettySize=auto;html=1;exitX=1;exitY=0.5;exitDx=0;exitDy=0;" edge="1" parent="1" source="pYTJIBWrfK2sdvSUUm1U-1" target="pYTJIBWrfK2sdvSUUm1U-2">
          <mxGeometry relative="1" as="geometry" />
        </mxCell>
        <mxCell id="pYTJIBWrfK2sdvSUUm1U-1" value="Hub publishes to each curtain ~/-/-/&amp;lt;id&amp;gt;" style="rounded=1;whiteSpace=wrap;html=1;fillColor=#a20025;strokeColor=#6F0000;fontColor=#ffffff;" vertex="1" parent="1">
          <mxGeometry x="170" y="270" width="120" height="60" as="geometry" />
        </mxCell>
        <mxCell id="pYTJIBWrfK2sdvSUUm1U-2" value="Curtain subscribes to &lt;br&gt;~/&amp;lt;Home.id&amp;gt;/move,status&lt;br&gt;~/-/&amp;lt;Room.id&amp;gt;/move,status&lt;br&gt;updates values based on message data" style="rounded=1;whiteSpace=wrap;html=1;fillColor=#1ba1e2;strokeColor=#006EAF;fontColor=#ffffff;" vertex="1" parent="1">
          <mxGeometry x="330" y="270" width="120" height="60" as="geometry" />
        </mxCell>
      </root>
    </mxGraphModel>
  </diagram>
</mxfile>
